# Blender v3.1.2 OBJ File: 'room-empty.blend'
# www.blender.org
mtllib room-empty.mtl
o Plane
v 4.320015 2.803069 -3.281242
v 4.320015 0.000000 -3.281242
v -4.325306 0.000000 -3.281242
v 4.330597 0.000000 3.281242
v -4.325306 2.803069 -3.281242
v -4.325306 2.803069 3.281242
v 4.330597 2.803069 3.281242
v -4.325306 0.000000 3.281242
vt 0.000000 0.000000
vt 0.000000 0.000000
vt 0.000000 0.000000
vt 0.000000 0.000000
vt 0.000000 0.000000
vt 0.000000 0.000000
vt 0.000000 0.000000
vt 0.000000 0.000000
vn 0.0000 0.0000 -1.0000
vn 0.0000 1.0000 0.0000
vn -1.0000 0.0000 0.0016
vn 1.0000 0.0000 0.0000
vn 0.0000 0.0000 1.0000
vn 0.0000 -1.0000 0.0000
usemtl None
s off
f 6/1/1 4/2/1 8/3/1
f 3/4/2 4/2/2 2/5/2
f 4/2/3 7/6/3 1/7/3
f 2/5/3 4/2/3 1/7/3
f 8/3/4 3/4/4 6/1/4
f 1/7/5 3/4/5 2/5/5
f 6/1/1 7/6/1 4/2/1
f 3/4/4 5/8/4 6/1/4
f 4/2/2 3/4/2 8/3/2
f 1/7/5 5/8/5 3/4/5
f 7/6/6 6/1/6 1/7/6
f 5/8/6 1/7/6 6/1/6
